<svg id="Layer_2" data-name="Layer 2" xmlns="http://www.w3.org/2000/svg" viewBox="0 0 366.46 110.41"><defs><style>.cls-1{fill:#fff;}.cls-2{fill:none;stroke:#fff;stroke-miterlimit:1;stroke-width:0.28px;}</style></defs><title>CSSD Stacked Large CMYK White</title><path class="cls-1" d="M365.32,110.67,355.12,95a.27.27,0,0,0-.26-.13H354a.29.29,0,0,0-.33.32v15.93c0,.22.11.32.33.32a.28.28,0,0,0,.32-.32V95.46h.43l10.2,15.72a.23.23,0,0,0,.12.1.35.35,0,0,0,.14,0H366a.29.29,0,0,0,.33-.33V95.06a.29.29,0,0,0-.33-.33.29.29,0,0,0-.32.33v15.61ZM343,106.08a7.88,7.88,0,0,1-1.44,2.51,6.94,6.94,0,0,1-2.3,1.73,7.64,7.64,0,0,1-6.12,0,6.84,6.84,0,0,1-2.3-1.73,7.52,7.52,0,0,1-1.44-2.51,9.34,9.34,0,0,1,0-6,7.67,7.67,0,0,1,1.44-2.52,6.93,6.93,0,0,1,5.36-2.36,6.93,6.93,0,0,1,5.36,2.36,8,8,0,0,1,1.44,2.52,9.34,9.34,0,0,1,0,6m-14.18.38a8.15,8.15,0,0,0,1.65,2.71A7.5,7.5,0,0,0,333,111a7.92,7.92,0,0,0,3.22.65,7.84,7.84,0,0,0,3.21-.65,7.44,7.44,0,0,0,2.52-1.78,8.13,8.13,0,0,0,1.64-2.71,10.06,10.06,0,0,0,0-6.79A8.13,8.13,0,0,0,342,97a7.61,7.61,0,0,0-2.52-1.79,7.83,7.83,0,0,0-3.21-.64,7.91,7.91,0,0,0-3.22.64A7.67,7.67,0,0,0,330.51,97a8.15,8.15,0,0,0-1.65,2.71,10.06,10.06,0,0,0,0,6.79m-21.56-11h3.77a10.64,10.64,0,0,1,3.44.51A6.6,6.6,0,0,1,317,97.46a6.22,6.22,0,0,1,1.51,2.38,10.45,10.45,0,0,1,0,6.45,6.3,6.3,0,0,1-1.51,2.38,6.73,6.73,0,0,1-2.49,1.49,10.64,10.64,0,0,1-3.44.51H307.3Zm3.77,15.85a11.56,11.56,0,0,0,3.48-.5,7.3,7.3,0,0,0,2.73-1.53,7,7,0,0,0,1.78-2.57,10.92,10.92,0,0,0,0-7.31,7,7,0,0,0-1.78-2.57,7.29,7.29,0,0,0-2.73-1.52,11.57,11.57,0,0,0-3.48-.49H307a.29.29,0,0,0-.32.32V111a.29.29,0,0,0,.32.33Zm-15.66-.64L285.22,95a.3.3,0,0,0-.27-.13H284a.28.28,0,0,0-.32.32v15.93a.28.28,0,0,0,.32.32.28.28,0,0,0,.32-.32V95.46h.43L295,111.18a.23.23,0,0,0,.12.1.35.35,0,0,0,.14,0h.84a.29.29,0,0,0,.32-.33V95.06a.29.29,0,0,0-.32-.33.29.29,0,0,0-.33.33v15.61Zm-22.28-4.59a7.88,7.88,0,0,1-1.44,2.51,6.94,6.94,0,0,1-2.3,1.73,7.64,7.64,0,0,1-6.12,0,6.94,6.94,0,0,1-2.3-1.73,7.69,7.69,0,0,1-1.44-2.51,9.34,9.34,0,0,1,0-6A7.85,7.85,0,0,1,261,97.53a7.17,7.17,0,0,1,10.72,0,8,8,0,0,1,1.44,2.52,9.34,9.34,0,0,1,0,6m-14.18.38a8.15,8.15,0,0,0,1.65,2.71,7.44,7.44,0,0,0,2.52,1.78,8.25,8.25,0,0,0,6.42,0,7.44,7.44,0,0,0,2.52-1.78,8.32,8.32,0,0,0,1.65-2.71,10.23,10.23,0,0,0,0-6.79A8.32,8.32,0,0,0,272.06,97a7.61,7.61,0,0,0-2.52-1.79,8.37,8.37,0,0,0-6.42,0A7.61,7.61,0,0,0,260.6,97,8.15,8.15,0,0,0,259,99.67a10.06,10.06,0,0,0,0,6.79m-14.33-11.4c0-.22-.1-.33-.32-.33a.29.29,0,0,0-.32.33V111a.29.29,0,0,0,.32.33h7.17a.32.32,0,0,0,.23-.09.31.31,0,0,0,.09-.22.32.32,0,0,0-.09-.24.32.32,0,0,0-.23-.09h-6.85Zm-27.83,8.12h7a.32.32,0,0,0,.23-.09.34.34,0,0,0,.08-.23.33.33,0,0,0-.08-.22.33.33,0,0,0-.23-.1h-7V95.46h7.54a.32.32,0,0,0,.23-.09.32.32,0,0,0,.09-.24.29.29,0,0,0-.09-.22.32.32,0,0,0-.23-.09h-7.86a.29.29,0,0,0-.32.32v15.93a.32.32,0,1,0,.64,0Zm-11.23,2.9a7.52,7.52,0,0,1-1.44,2.51,6.84,6.84,0,0,1-2.3,1.73,7.64,7.64,0,0,1-6.12,0,6.8,6.8,0,0,1-2.29-1.73,7.52,7.52,0,0,1-1.44-2.51,9.34,9.34,0,0,1,0-6,7.67,7.67,0,0,1,1.44-2.52,6.91,6.91,0,0,1,2.29-1.72,7.64,7.64,0,0,1,6.12,0,7,7,0,0,1,2.3,1.72,7.67,7.67,0,0,1,1.44,2.52,9.34,9.34,0,0,1,0,6m-14.17.38a8.13,8.13,0,0,0,1.64,2.71,7.44,7.44,0,0,0,2.52,1.78,8.28,8.28,0,0,0,6.43,0,7.64,7.64,0,0,0,2.52-1.78,8.13,8.13,0,0,0,1.64-2.71,10.06,10.06,0,0,0,0-6.79A8.13,8.13,0,0,0,204.5,97,7.82,7.82,0,0,0,202,95.17a8.4,8.4,0,0,0-6.43,0A7.61,7.61,0,0,0,193,97a8.13,8.13,0,0,0-1.64,2.71,10.06,10.06,0,0,0,0,6.79m-24.22,4.61a.28.28,0,0,0,.32.32.28.28,0,0,0,.32-.32v-7l5.58-8.82a.35.35,0,0,0,0-.33.31.31,0,0,0-.29-.16.28.28,0,0,0-.27.16l-5.34,8.46-5.26-8.46a.29.29,0,0,0-.27-.16.31.31,0,0,0-.29.16.35.35,0,0,0,0,.33l5.48,8.82ZM154.23,95.46a.28.28,0,0,0,.22-.09.32.32,0,0,0,.08-.24.29.29,0,0,0-.08-.22.28.28,0,0,0-.22-.09h-11a.28.28,0,0,0-.22.09.29.29,0,0,0-.09.22.32.32,0,0,0,.09.24.28.28,0,0,0,.22.09h5.16v15.61a.28.28,0,0,0,.32.32.28.28,0,0,0,.32-.32V95.46Zm-20.74-.4v16c0,.22.11.32.33.32a.28.28,0,0,0,.32-.32v-16a.29.29,0,0,0-.32-.33.29.29,0,0,0-.33.33m-9.75,10.3a4,4,0,0,0-1.06-1.34,6.12,6.12,0,0,0-1.54-.9,18.89,18.89,0,0,0-1.84-.61c-.54-.15-1.06-.32-1.55-.51a4.94,4.94,0,0,1-1.31-.7,3,3,0,0,1-1.25-2.59,3.53,3.53,0,0,1,.32-1.54,3.23,3.23,0,0,1,.85-1.11,3.72,3.72,0,0,1,1.28-.67,5.53,5.53,0,0,1,1.6-.22,4.43,4.43,0,0,1,2.6.68,3.58,3.58,0,0,1,1.32,1.93.25.25,0,0,0,.1.15.29.29,0,0,0,.19.06.31.31,0,0,0,.31-.42,4.17,4.17,0,0,0-.63-1.38,3.51,3.51,0,0,0-1-.94,4.33,4.33,0,0,0-1.32-.55,7,7,0,0,0-1.55-.17,6.16,6.16,0,0,0-1.77.25,4.44,4.44,0,0,0-1.5.77,3.81,3.81,0,0,0-1,1.3,4.19,4.19,0,0,0-.39,1.87,3.93,3.93,0,0,0,.4,1.88,3.75,3.75,0,0,0,1.06,1.24,6,6,0,0,0,1.48.79c.56.2,1.11.38,1.66.53a16,16,0,0,1,1.65.55,5.76,5.76,0,0,1,1.38.78,3.67,3.67,0,0,1,1,1.16,3.54,3.54,0,0,1,.36,1.66,3.58,3.58,0,0,1-.34,1.62,3.14,3.14,0,0,1-.91,1.13,3.9,3.9,0,0,1-1.35.68,6,6,0,0,1-1.66.22,5,5,0,0,1-3-.75,3.84,3.84,0,0,1-1.43-2.21.26.26,0,0,0-.09-.16.27.27,0,0,0-.2-.07.31.31,0,0,0-.28.13.39.39,0,0,0,0,.28,4.34,4.34,0,0,0,.75,1.68,4.12,4.12,0,0,0,1.17,1,4.49,4.49,0,0,0,1.46.54,8.14,8.14,0,0,0,1.64.16,6.81,6.81,0,0,0,1.87-.25,4.72,4.72,0,0,0,1.57-.78,3.72,3.72,0,0,0,1.07-1.34,4.32,4.32,0,0,0,.4-1.93,4.39,4.39,0,0,0-.39-1.94m-23.22-1.23,5.23,7.13a.27.27,0,0,0,.24.13.28.28,0,0,0,.3-.18.35.35,0,0,0,0-.33l-5-6.81a5.47,5.47,0,0,0,1.68-.43,4.1,4.1,0,0,0,1.35-.92,4,4,0,0,0,.9-1.41,5.11,5.11,0,0,0,.33-1.9,4.92,4.92,0,0,0-.36-1.93,4,4,0,0,0-1-1.44,4.44,4.44,0,0,0-1.57-.91,6.22,6.22,0,0,0-2-.31H96.25a.29.29,0,0,0-.33.32v15.93c0,.22.11.32.33.32a.28.28,0,0,0,.32-.32v-6.94Zm-4-8.66h4a5.59,5.59,0,0,1,1.86.29,3.76,3.76,0,0,1,1.36.81,3.36,3.36,0,0,1,.82,1.24,4.37,4.37,0,0,1,.28,1.6,4.47,4.47,0,0,1-.31,1.72,3.64,3.64,0,0,1-.89,1.28,4,4,0,0,1-1.37.8,5.4,5.4,0,0,1-1.75.28h-4Zm-17.65,7.65h7a.29.29,0,0,0,.22-.09.3.3,0,0,0,.09-.23.29.29,0,0,0-.09-.22.27.27,0,0,0-.22-.1h-7v-7h7.54a.32.32,0,0,0,.23-.09.32.32,0,0,0,.09-.24.29.29,0,0,0-.09-.22.32.32,0,0,0-.23-.09H78.6a.28.28,0,0,0-.32.32V111c0,.22.1.33.32.33h8a.32.32,0,0,0,.23-.09.31.31,0,0,0,.09-.22.32.32,0,0,0-.09-.24.32.32,0,0,0-.23-.09H78.92Zm-15.34,8.19a.3.3,0,0,0,.31-.22l5.66-15.93a.32.32,0,0,0,0-.3.35.35,0,0,0-.27-.13A.29.29,0,0,0,69,95l-5.57,15.72h-.75L57.07,95a.3.3,0,0,0-.12-.17.28.28,0,0,0-.18-.06.32.32,0,0,0-.28.14.3.3,0,0,0,0,.29l5.66,15.93a.29.29,0,0,0,.3.22ZM47.09,95.06v16a.28.28,0,0,0,.32.32.28.28,0,0,0,.32-.32v-16c0-.22-.1-.33-.32-.33a.29.29,0,0,0-.32.33M35.84,110.67,25.64,95a.27.27,0,0,0-.26-.13h-.91a.29.29,0,0,0-.33.32v15.93c0,.22.11.32.33.32a.28.28,0,0,0,.32-.32V95.46h.43l10.2,15.72a.23.23,0,0,0,.12.1.35.35,0,0,0,.14,0h.83a.29.29,0,0,0,.33-.33V95.06a.29.29,0,0,0-.33-.33.29.29,0,0,0-.32.33v15.61Zm-29.76-.08a4.43,4.43,0,0,1-1.63-1.06,4.8,4.8,0,0,1-1-1.69,6.64,6.64,0,0,1-.36-2.25V95.06a.29.29,0,0,0-.33-.33.29.29,0,0,0-.32.33v10.53a7.52,7.52,0,0,0,.4,2.49A5.35,5.35,0,0,0,4,110a5.21,5.21,0,0,0,1.82,1.2,6.66,6.66,0,0,0,2.43.42,6.58,6.58,0,0,0,2.43-.42,5.21,5.21,0,0,0,1.82-1.2,5.35,5.35,0,0,0,1.15-1.9,7.27,7.27,0,0,0,.4-2.49V95.06a.29.29,0,0,0-.32-.33c-.22,0-.32.11-.32.33v10.53a6.63,6.63,0,0,1-.37,2.25,4.66,4.66,0,0,1-1,1.69,4.43,4.43,0,0,1-1.63,1.06,5.73,5.73,0,0,1-2.13.37,5.73,5.73,0,0,1-2.13-.37" transform="translate(-1.33 -1.33)"/><path class="cls-2" d="M365.32,110.67,355.12,95a.27.27,0,0,0-.26-.13H354a.29.29,0,0,0-.33.32v15.93c0,.22.11.32.33.32a.28.28,0,0,0,.32-.32V95.46h.43l10.2,15.72a.23.23,0,0,0,.12.1.35.35,0,0,0,.14,0H366a.29.29,0,0,0,.33-.33V95.06a.29.29,0,0,0-.33-.33.29.29,0,0,0-.32.33v15.61ZM343,106.08a7.88,7.88,0,0,1-1.44,2.51,6.94,6.94,0,0,1-2.3,1.73,7.64,7.64,0,0,1-6.12,0,6.84,6.84,0,0,1-2.3-1.73,7.52,7.52,0,0,1-1.44-2.51,9.34,9.34,0,0,1,0-6,7.67,7.67,0,0,1,1.44-2.52,6.93,6.93,0,0,1,5.36-2.36,6.93,6.93,0,0,1,5.36,2.36,8,8,0,0,1,1.44,2.52,9.34,9.34,0,0,1,0,6Zm-14.18.38a8.15,8.15,0,0,0,1.65,2.71A7.5,7.5,0,0,0,333,111a7.92,7.92,0,0,0,3.22.65,7.84,7.84,0,0,0,3.21-.65,7.44,7.44,0,0,0,2.52-1.78,8.13,8.13,0,0,0,1.64-2.71,10.06,10.06,0,0,0,0-6.79A8.13,8.13,0,0,0,342,97a7.61,7.61,0,0,0-2.52-1.79,7.83,7.83,0,0,0-3.21-.64,7.91,7.91,0,0,0-3.22.64A7.67,7.67,0,0,0,330.51,97a8.15,8.15,0,0,0-1.65,2.71,10.06,10.06,0,0,0,0,6.79Zm-21.56-11h3.77a10.64,10.64,0,0,1,3.44.51A6.6,6.6,0,0,1,317,97.46a6.22,6.22,0,0,1,1.51,2.38,10.45,10.45,0,0,1,0,6.45,6.3,6.3,0,0,1-1.51,2.38,6.73,6.73,0,0,1-2.49,1.49,10.64,10.64,0,0,1-3.44.51H307.3Zm3.77,15.85a11.56,11.56,0,0,0,3.48-.5,7.3,7.3,0,0,0,2.73-1.53,7,7,0,0,0,1.78-2.57,10.92,10.92,0,0,0,0-7.31,7,7,0,0,0-1.78-2.57,7.29,7.29,0,0,0-2.73-1.52,11.57,11.57,0,0,0-3.48-.49H307a.29.29,0,0,0-.32.32V111a.29.29,0,0,0,.32.33Zm-15.66-.64L285.22,95a.3.3,0,0,0-.27-.13H284a.28.28,0,0,0-.32.32v15.93a.28.28,0,0,0,.32.32.28.28,0,0,0,.32-.32V95.46h.43L295,111.18a.23.23,0,0,0,.12.1.35.35,0,0,0,.14,0h.84a.29.29,0,0,0,.32-.33V95.06a.29.29,0,0,0-.32-.33.29.29,0,0,0-.33.33v15.61Zm-22.28-4.59a7.88,7.88,0,0,1-1.44,2.51,6.94,6.94,0,0,1-2.3,1.73,7.64,7.64,0,0,1-6.12,0,6.94,6.94,0,0,1-2.3-1.73,7.69,7.69,0,0,1-1.44-2.51,9.34,9.34,0,0,1,0-6A7.85,7.85,0,0,1,261,97.53a7.17,7.17,0,0,1,10.72,0,8,8,0,0,1,1.44,2.52,9.34,9.34,0,0,1,0,6Zm-14.18.38a8.15,8.15,0,0,0,1.65,2.71,7.44,7.44,0,0,0,2.52,1.78,8.25,8.25,0,0,0,6.42,0,7.44,7.44,0,0,0,2.52-1.78,8.32,8.32,0,0,0,1.65-2.71,10.23,10.23,0,0,0,0-6.79A8.32,8.32,0,0,0,272.06,97a7.61,7.61,0,0,0-2.52-1.79,8.37,8.37,0,0,0-6.42,0A7.61,7.61,0,0,0,260.6,97,8.15,8.15,0,0,0,259,99.67a10.06,10.06,0,0,0,0,6.79Zm-14.33-11.4c0-.22-.1-.33-.32-.33a.29.29,0,0,0-.32.33V111a.29.29,0,0,0,.32.33h7.17a.32.32,0,0,0,.23-.09.31.31,0,0,0,.09-.22.32.32,0,0,0-.09-.24.32.32,0,0,0-.23-.09h-6.85Zm-27.83,8.12h7a.32.32,0,0,0,.23-.09.34.34,0,0,0,.08-.23.33.33,0,0,0-.08-.22.33.33,0,0,0-.23-.1h-7V95.46h7.54a.32.32,0,0,0,.23-.09.32.32,0,0,0,.09-.24.29.29,0,0,0-.09-.22.32.32,0,0,0-.23-.09h-7.86a.29.29,0,0,0-.32.32v15.93a.32.32,0,1,0,.64,0Zm-11.23,2.9a7.52,7.52,0,0,1-1.44,2.51,6.84,6.84,0,0,1-2.3,1.73,7.64,7.64,0,0,1-6.12,0,6.8,6.8,0,0,1-2.29-1.73,7.52,7.52,0,0,1-1.44-2.51,9.34,9.34,0,0,1,0-6,7.67,7.67,0,0,1,1.44-2.52,6.91,6.91,0,0,1,2.29-1.72,7.64,7.64,0,0,1,6.12,0,7,7,0,0,1,2.3,1.72,7.67,7.67,0,0,1,1.44,2.52,9.34,9.34,0,0,1,0,6Zm-14.17.38a8.13,8.13,0,0,0,1.64,2.71,7.44,7.44,0,0,0,2.52,1.78,8.28,8.28,0,0,0,6.43,0,7.64,7.64,0,0,0,2.52-1.78,8.13,8.13,0,0,0,1.64-2.71,10.06,10.06,0,0,0,0-6.79A8.13,8.13,0,0,0,204.5,97,7.82,7.82,0,0,0,202,95.17a8.4,8.4,0,0,0-6.43,0A7.61,7.61,0,0,0,193,97a8.13,8.13,0,0,0-1.64,2.71,10.06,10.06,0,0,0,0,6.79Zm-24.22,4.61a.28.28,0,0,0,.32.32.28.28,0,0,0,.32-.32v-7l5.58-8.82a.35.35,0,0,0,0-.33.31.31,0,0,0-.29-.16.28.28,0,0,0-.27.16l-5.34,8.46-5.26-8.46a.29.29,0,0,0-.27-.16.31.31,0,0,0-.29.16.35.35,0,0,0,0,.33l5.48,8.82ZM154.23,95.46a.28.28,0,0,0,.22-.09.32.32,0,0,0,.08-.24.29.29,0,0,0-.08-.22.28.28,0,0,0-.22-.09h-11a.28.28,0,0,0-.22.09.29.29,0,0,0-.09.22.32.32,0,0,0,.09.24.28.28,0,0,0,.22.09h5.16v15.61a.28.28,0,0,0,.32.32.28.28,0,0,0,.32-.32V95.46Zm-20.74-.4v16c0,.22.11.32.33.32a.28.28,0,0,0,.32-.32v-16a.29.29,0,0,0-.32-.33A.29.29,0,0,0,133.49,95.06Zm-9.75,10.3a4,4,0,0,0-1.06-1.34,6.12,6.12,0,0,0-1.54-.9,18.89,18.89,0,0,0-1.84-.61c-.54-.15-1.06-.32-1.55-.51a4.94,4.94,0,0,1-1.31-.7,3,3,0,0,1-1.25-2.59,3.53,3.53,0,0,1,.32-1.54,3.23,3.23,0,0,1,.85-1.11,3.72,3.72,0,0,1,1.28-.67,5.53,5.53,0,0,1,1.6-.22,4.43,4.43,0,0,1,2.6.68,3.58,3.58,0,0,1,1.32,1.93.25.25,0,0,0,.1.15.29.29,0,0,0,.19.06.31.31,0,0,0,.31-.42,4.17,4.17,0,0,0-.63-1.38,3.51,3.51,0,0,0-1-.94,4.33,4.33,0,0,0-1.32-.55,7,7,0,0,0-1.55-.17,6.16,6.16,0,0,0-1.77.25,4.44,4.44,0,0,0-1.5.77,3.81,3.81,0,0,0-1,1.3,4.19,4.19,0,0,0-.39,1.87,3.93,3.93,0,0,0,.4,1.88,3.75,3.75,0,0,0,1.06,1.24,6,6,0,0,0,1.48.79c.56.2,1.11.38,1.66.53a16,16,0,0,1,1.65.55,5.76,5.76,0,0,1,1.38.78,3.67,3.67,0,0,1,1,1.16,3.54,3.54,0,0,1,.36,1.66,3.58,3.58,0,0,1-.34,1.62,3.14,3.14,0,0,1-.91,1.13,3.9,3.9,0,0,1-1.35.68,6,6,0,0,1-1.66.22,5,5,0,0,1-3-.75,3.84,3.84,0,0,1-1.43-2.21.26.26,0,0,0-.09-.16.27.27,0,0,0-.2-.07.31.31,0,0,0-.28.13.39.39,0,0,0,0,.28,4.34,4.34,0,0,0,.75,1.68,4.12,4.12,0,0,0,1.17,1,4.49,4.49,0,0,0,1.46.54,8.14,8.14,0,0,0,1.64.16,6.81,6.81,0,0,0,1.87-.25,4.72,4.72,0,0,0,1.57-.78,3.72,3.72,0,0,0,1.07-1.34,4.32,4.32,0,0,0,.4-1.93A4.39,4.39,0,0,0,123.74,105.36Zm-23.22-1.23,5.23,7.13a.27.27,0,0,0,.24.13.28.28,0,0,0,.3-.18.35.35,0,0,0,0-.33l-5-6.81a5.47,5.47,0,0,0,1.68-.43,4.1,4.1,0,0,0,1.35-.92,4,4,0,0,0,.9-1.41,5.11,5.11,0,0,0,.33-1.9,4.92,4.92,0,0,0-.36-1.93,4,4,0,0,0-1-1.44,4.44,4.44,0,0,0-1.57-.91,6.22,6.22,0,0,0-2-.31H96.25a.29.29,0,0,0-.33.32v15.93c0,.22.11.32.33.32a.28.28,0,0,0,.32-.32v-6.94Zm-4-8.66h4a5.59,5.59,0,0,1,1.86.29,3.76,3.76,0,0,1,1.36.81,3.36,3.36,0,0,1,.82,1.24,4.37,4.37,0,0,1,.28,1.6,4.47,4.47,0,0,1-.31,1.72,3.64,3.64,0,0,1-.89,1.28,4,4,0,0,1-1.37.8,5.4,5.4,0,0,1-1.75.28h-4Zm-17.65,7.65h7a.29.29,0,0,0,.22-.09.3.3,0,0,0,.09-.23.29.29,0,0,0-.09-.22.27.27,0,0,0-.22-.1h-7v-7h7.54a.32.32,0,0,0,.23-.09.32.32,0,0,0,.09-.24.29.29,0,0,0-.09-.22.32.32,0,0,0-.23-.09H78.6a.28.28,0,0,0-.32.32V111c0,.22.1.33.32.33h8a.32.32,0,0,0,.23-.09.31.31,0,0,0,.09-.22.32.32,0,0,0-.09-.24.32.32,0,0,0-.23-.09H78.92Zm-15.34,8.19a.3.3,0,0,0,.31-.22l5.66-15.93a.32.32,0,0,0,0-.3.35.35,0,0,0-.27-.13A.29.29,0,0,0,69,95l-5.57,15.72h-.75L57.07,95a.3.3,0,0,0-.12-.17.28.28,0,0,0-.18-.06.32.32,0,0,0-.28.14.3.3,0,0,0,0,.29l5.66,15.93a.29.29,0,0,0,.3.22ZM47.09,95.06v16a.28.28,0,0,0,.32.32.28.28,0,0,0,.32-.32v-16c0-.22-.1-.33-.32-.33A.29.29,0,0,0,47.09,95.06ZM35.84,110.67,25.64,95a.27.27,0,0,0-.26-.13h-.91a.29.29,0,0,0-.33.32v15.93c0,.22.11.32.33.32a.28.28,0,0,0,.32-.32V95.46h.43l10.2,15.72a.23.23,0,0,0,.12.1.35.35,0,0,0,.14,0h.83a.29.29,0,0,0,.33-.33V95.06a.29.29,0,0,0-.33-.33.29.29,0,0,0-.32.33v15.61Zm-29.76-.08a4.43,4.43,0,0,1-1.63-1.06,4.8,4.8,0,0,1-1-1.69,6.64,6.64,0,0,1-.36-2.25V95.06a.29.29,0,0,0-.33-.33.29.29,0,0,0-.32.33v10.53a7.52,7.52,0,0,0,.4,2.49A5.35,5.35,0,0,0,4,110a5.21,5.21,0,0,0,1.82,1.2,6.66,6.66,0,0,0,2.43.42,6.58,6.58,0,0,0,2.43-.42,5.21,5.21,0,0,0,1.82-1.2,5.35,5.35,0,0,0,1.15-1.9,7.27,7.27,0,0,0,.4-2.49V95.06a.29.29,0,0,0-.32-.33c-.22,0-.32.11-.32.33v10.53a6.63,6.63,0,0,1-.37,2.25,4.66,4.66,0,0,1-1,1.69,4.43,4.43,0,0,1-1.63,1.06,5.73,5.73,0,0,1-2.13.37A5.73,5.73,0,0,1,6.08,110.59Z" transform="translate(-1.33 -1.33)"/><path class="cls-1" d="M360.14,50.21l3.42,9.56H356l3.43-9.56Zm-1-.64a.29.29,0,0,0-.29.21l-5.72,15.94a.3.3,0,0,0,0,.29.31.31,0,0,0,.28.13.32.32,0,0,0,.18-.06.31.31,0,0,0,.12-.17l2-5.5h8.06l2,5.52a.28.28,0,0,0,.29.21.31.31,0,0,0,.26-.12.29.29,0,0,0,0-.3l-5.71-15.94a.31.31,0,0,0-.31-.21ZM347.7,65.83a.29.29,0,0,0,.09.22.32.32,0,0,0,.23.09.31.31,0,0,0,.31-.31V49.88a.31.31,0,0,0-.31-.31H346.9a.3.3,0,0,0-.29.17l-5.92,11.49h-.22l-6.14-11.49a.28.28,0,0,0-.27-.17h-1.13a.31.31,0,0,0-.31.31V65.83a.31.31,0,0,0,.31.31.32.32,0,0,0,.23-.09.29.29,0,0,0,.09-.22V50.21h.62L340,61.69a.3.3,0,0,0,.27.18h.6a.32.32,0,0,0,.29-.18l5.91-11.48h.62ZM321.56,50.21,325,59.77h-7.6l3.43-9.56Zm-1-.64a.29.29,0,0,0-.3.21l-5.72,15.94a.3.3,0,0,0,0,.29.32.32,0,0,0,.28.13.28.28,0,0,0,.18-.06.27.27,0,0,0,.12-.17l2-5.5h8.06l2,5.52a.29.29,0,0,0,.29.21.34.34,0,0,0,.27-.12.32.32,0,0,0,0-.3l-5.72-15.94a.3.3,0,0,0-.31-.21Zm-15.33,9.31L310.49,66A.32.32,0,0,0,311,66a.35.35,0,0,0-.05-.34l-5-6.81a5.19,5.19,0,0,0,1.68-.42,4.1,4.1,0,0,0,1.35-.92,4.26,4.26,0,0,0,.9-1.41,5.17,5.17,0,0,0,.33-1.91,4.73,4.73,0,0,0-.37-1.92,3.93,3.93,0,0,0-1-1.44,4.49,4.49,0,0,0-1.58-.91,6.16,6.16,0,0,0-2-.31H301a.29.29,0,0,0-.32.32V65.82a.29.29,0,0,0,.32.32.28.28,0,0,0,.32-.32V58.88Zm-4-8.66h4a5.59,5.59,0,0,1,1.86.29,3.63,3.63,0,0,1,1.35.81,3.31,3.31,0,0,1,.83,1.24,4.32,4.32,0,0,1,.28,1.59,4.4,4.4,0,0,1-.31,1.72,3.55,3.55,0,0,1-.89,1.28A4,4,0,0,1,307,58a5.44,5.44,0,0,1-1.75.28h-4Zm-18.54,0h3.76a10.6,10.6,0,0,1,3.44.51,6.63,6.63,0,0,1,2.49,1.48A6.22,6.22,0,0,1,294,54.59,10.26,10.26,0,0,1,294,61a6.18,6.18,0,0,1-1.51,2.38A6.65,6.65,0,0,1,290,64.91a10.6,10.6,0,0,1-3.44.51h-3.76Zm3.76,15.85a11.63,11.63,0,0,0,3.49-.5A7.44,7.44,0,0,0,292.75,64a6.87,6.87,0,0,0,1.77-2.57,10.92,10.92,0,0,0,0-7.31,6.79,6.79,0,0,0-1.77-2.57A7.29,7.29,0,0,0,290,50.06a11.64,11.64,0,0,0-3.49-.49h-4.08a.28.28,0,0,0-.32.32V65.73c0,.22.1.33.32.33ZM261.2,55.6a4.83,4.83,0,0,1-.46-.59,6.7,6.7,0,0,1-.37-.7,4.74,4.74,0,0,1-.26-.75,3.31,3.31,0,0,1-.09-.77,3,3,0,0,1,.24-1.24,2.46,2.46,0,0,1,.64-.9,2.84,2.84,0,0,1,.94-.55,3.64,3.64,0,0,1,2.26,0,2.84,2.84,0,0,1,.94.55,2.46,2.46,0,0,1,.64.9,3.25,3.25,0,0,1,0,2.45,3.73,3.73,0,0,1-.68,1.06,6.73,6.73,0,0,1-1.1,1c-.43.32-.91.65-1.45,1Zm-2,5.13a4.9,4.9,0,0,1,.8-1.14,6.67,6.67,0,0,1,1.1-.93l1.24-.81,5,5.67a5.89,5.89,0,0,1-1.82,1.59,5,5,0,0,1-2.48.6,5.3,5.3,0,0,1-1.53-.23,3.94,3.94,0,0,1-1.32-.68,3.44,3.44,0,0,1-.92-1.12,3.31,3.31,0,0,1-.35-1.55,3.09,3.09,0,0,1,.31-1.4m7.11-9.5a3.12,3.12,0,0,0-.81-1.1,3.25,3.25,0,0,0-1.15-.64,4.38,4.38,0,0,0-2.68,0,3.25,3.25,0,0,0-1.15.64,3.12,3.12,0,0,0-.81,1.1,3.62,3.62,0,0,0-.31,1.56,3.69,3.69,0,0,0,.11.86,5.22,5.22,0,0,0,.29.87,5.89,5.89,0,0,0,1,1.52l1.17,1.34q-.75.45-1.41.93a6.75,6.75,0,0,0-1.15,1,4.82,4.82,0,0,0-.81,1.24,4.46,4.46,0,0,0-.34,1.55,4.21,4.21,0,0,0,.4,1.83,4,4,0,0,0,1,1.31,4.31,4.31,0,0,0,1.51.81,6.16,6.16,0,0,0,1.84.27,5.73,5.73,0,0,0,2.73-.64,6.29,6.29,0,0,0,2-1.69l1.76,2a.32.32,0,0,0,.25.12A.29.29,0,0,0,270,66a.36.36,0,0,0-.06-.35l-1.87-2.13A8,8,0,0,0,269,61.6a10.09,10.09,0,0,0,.46-2.06q0-.39-.33-.39a.33.33,0,0,0-.19.06.3.3,0,0,0-.11.2,9.86,9.86,0,0,1-.39,1.87,7.83,7.83,0,0,1-.77,1.69l-4.79-5.46a16,16,0,0,0,1.45-1,8.42,8.42,0,0,0,1.19-1.09,5.09,5.09,0,0,0,.8-1.23,3.53,3.53,0,0,0,.29-1.42,3.62,3.62,0,0,0-.31-1.56M244.86,65.82a.29.29,0,0,0,.32.32.28.28,0,0,0,.32-.32v-16c0-.22-.1-.33-.32-.33a.29.29,0,0,0-.32.33v7.42H234.11V49.81a.29.29,0,0,0-.32-.33c-.22,0-.32.11-.32.33v16a.28.28,0,0,0,.32.32.29.29,0,0,0,.32-.32V57.87h10.75Zm-26.74-.75a6.8,6.8,0,0,1-2.29-1.73,7.47,7.47,0,0,1-1.44-2.52,9.31,9.31,0,0,1,0-6,7.67,7.67,0,0,1,1.44-2.52,6.78,6.78,0,0,1,2.29-1.72,7.07,7.07,0,0,1,3.06-.64,7.63,7.63,0,0,1,2.19.3,6.81,6.81,0,0,1,1.8.86,6,6,0,0,1,1.35,1.31,5.64,5.64,0,0,1,.85,1.63.25.25,0,0,0,.27.19.32.32,0,0,0,.27-.12.33.33,0,0,0,0-.31A6.44,6.44,0,0,0,227,52a6.33,6.33,0,0,0-1.49-1.43,6.76,6.76,0,0,0-2-.93,8,8,0,0,0-2.39-.34,7.9,7.9,0,0,0-3.21.64,7.47,7.47,0,0,0-2.52,1.79,8.18,8.18,0,0,0-1.64,2.7,10.09,10.09,0,0,0,0,6.8,8.33,8.33,0,0,0,1.64,2.71A7.44,7.44,0,0,0,218,65.7a7.9,7.9,0,0,0,3.21.65,8.32,8.32,0,0,0,2.39-.33,7.47,7.47,0,0,0,2-.94,6.41,6.41,0,0,0,1.5-1.44,6.11,6.11,0,0,0,.94-1.83.31.31,0,0,0-.31-.44.26.26,0,0,0-.26.2,6.18,6.18,0,0,1-.86,1.65,5.73,5.73,0,0,1-1.37,1.32,6.18,6.18,0,0,1-1.81.86,7.29,7.29,0,0,1-2.19.31,7.07,7.07,0,0,1-3.06-.64m-17.22-7.2h6.95a.29.29,0,0,0,.22-.09.34.34,0,0,0,0-.46.29.29,0,0,0-.22-.09H200.9v-7h7.54a.32.32,0,0,0,.23-.09.32.32,0,0,0,.09-.24.29.29,0,0,0-.09-.22.32.32,0,0,0-.23-.09h-7.86a.29.29,0,0,0-.32.32V65.73a.29.29,0,0,0,.32.33h8a.3.3,0,0,0,.23-.09.34.34,0,0,0,0-.46.3.3,0,0,0-.23-.09H200.9Zm-14.28,0h6.95a.29.29,0,0,0,.22-.09.34.34,0,0,0,0-.46.29.29,0,0,0-.22-.09h-6.95v-7h7.54a.32.32,0,0,0,.23-.09.32.32,0,0,0,.09-.24.29.29,0,0,0-.09-.22.32.32,0,0,0-.23-.09H186.3a.28.28,0,0,0-.32.32V65.73c0,.22.1.33.32.33h8a.32.32,0,1,0,0-.64h-7.68ZM176,59.08a6.2,6.2,0,0,0,2.07-.33,4.51,4.51,0,0,0,1.61-.93,4.3,4.3,0,0,0,1-1.49,5.62,5.62,0,0,0,0-4,4.3,4.3,0,0,0-1-1.49,4.68,4.68,0,0,0-1.61-.94,6.47,6.47,0,0,0-2.07-.32h-4.11a.29.29,0,0,0-.32.32V65.82a.29.29,0,0,0,.32.32.29.29,0,0,0,.33-.32V59.08Zm-3.78-.64V50.21H176a5.59,5.59,0,0,1,1.78.26,3.84,3.84,0,0,1,1.4.78,3.47,3.47,0,0,1,.91,1.29,5,5,0,0,1,0,3.57,3.47,3.47,0,0,1-.91,1.29,3.84,3.84,0,0,1-1.4.78,5.89,5.89,0,0,1-1.78.26Zm-6.5,1.67a3.87,3.87,0,0,0-1.06-1.34,5.83,5.83,0,0,0-1.54-.9,16.53,16.53,0,0,0-1.84-.61c-.54-.16-1.06-.32-1.55-.51a4.94,4.94,0,0,1-1.31-.7,3.18,3.18,0,0,1-.91-1,3.29,3.29,0,0,1-.34-1.55,3.48,3.48,0,0,1,.32-1.53,3.23,3.23,0,0,1,.85-1.11,3.72,3.72,0,0,1,1.28-.67,5.53,5.53,0,0,1,1.6-.22,4.36,4.36,0,0,1,2.6.68,3.56,3.56,0,0,1,1.32,1.92.25.25,0,0,0,.1.16.31.31,0,0,0,.19.06.31.31,0,0,0,.31-.42,4.17,4.17,0,0,0-.63-1.38,3.61,3.61,0,0,0-1-.94,4.5,4.5,0,0,0-1.33-.55,7,7,0,0,0-1.55-.17,6.16,6.16,0,0,0-1.77.25,4.44,4.44,0,0,0-1.5.77,3.72,3.72,0,0,0-1,1.3,4.19,4.19,0,0,0-.39,1.87,3.93,3.93,0,0,0,.4,1.88A3.87,3.87,0,0,0,158,56.59a6,6,0,0,0,1.48.79c.56.2,1.11.38,1.66.53a16,16,0,0,1,1.65.55,5.44,5.44,0,0,1,1.38.78,3.67,3.67,0,0,1,1,1.16,3.54,3.54,0,0,1,.36,1.66,3.64,3.64,0,0,1-.33,1.61,3.22,3.22,0,0,1-.92,1.14,3.72,3.72,0,0,1-1.35.67,6,6,0,0,1-1.66.23,4.94,4.94,0,0,1-3-.76,3.78,3.78,0,0,1-1.43-2.2.26.26,0,0,0-.09-.16.27.27,0,0,0-.2-.07.31.31,0,0,0-.28.13.39.39,0,0,0-.05.28,4.22,4.22,0,0,0,.75,1.67,4.14,4.14,0,0,0,1.17,1.05,4.54,4.54,0,0,0,1.47.54,8,8,0,0,0,1.63.16,6.81,6.81,0,0,0,1.87-.26,4.52,4.52,0,0,0,1.57-.77A3.72,3.72,0,0,0,165.7,64a4.32,4.32,0,0,0,.4-1.93,4.39,4.39,0,0,0-.39-1.94m-28.84-2.18h7a.31.31,0,0,0,.22-.09.34.34,0,0,0,0-.46.31.31,0,0,0-.22-.09h-7V50.21h7.54a.32.32,0,0,0,.23-.09.32.32,0,0,0,.09-.24.29.29,0,0,0-.09-.22.32.32,0,0,0-.23-.09h-7.86a.29.29,0,0,0-.32.32V65.82a.29.29,0,0,0,.32.32.28.28,0,0,0,.32-.32Zm-7.33,2.89a7.47,7.47,0,0,1-1.44,2.52,6.8,6.8,0,0,1-2.29,1.73,7.64,7.64,0,0,1-6.12,0,6.84,6.84,0,0,1-2.3-1.73A7.47,7.47,0,0,1,116,60.82a9.31,9.31,0,0,1,0-6,7.67,7.67,0,0,1,1.44-2.52,6.82,6.82,0,0,1,2.3-1.72,7.64,7.64,0,0,1,6.12,0,6.78,6.78,0,0,1,2.29,1.72,7.67,7.67,0,0,1,1.44,2.52,9.31,9.31,0,0,1,0,6m-14.17.39A8.33,8.33,0,0,0,117,63.92a7.64,7.64,0,0,0,2.52,1.78,8.28,8.28,0,0,0,6.43,0,7.44,7.44,0,0,0,2.52-1.78,8.33,8.33,0,0,0,1.64-2.71,10.09,10.09,0,0,0,0-6.8,8.18,8.18,0,0,0-1.64-2.7A7.47,7.47,0,0,0,126,49.92a8.4,8.4,0,0,0-6.43,0A7.67,7.67,0,0,0,117,51.71a8.18,8.18,0,0,0-1.64,2.7,10.09,10.09,0,0,0,0,6.8M96.3,49.81a.32.32,0,1,0-.64,0V65.73a.29.29,0,0,0,.32.33h7.17a.32.32,0,1,0,0-.64H96.3ZM89,60.82a7.47,7.47,0,0,1-1.44,2.52,6.74,6.74,0,0,1-2.3,1.73,7.64,7.64,0,0,1-6.12,0,6.8,6.8,0,0,1-2.29-1.73,7.47,7.47,0,0,1-1.44-2.52,9.31,9.31,0,0,1,0-6,7.67,7.67,0,0,1,1.44-2.52,6.78,6.78,0,0,1,2.29-1.72,7.64,7.64,0,0,1,6.12,0,6.72,6.72,0,0,1,2.3,1.72A7.67,7.67,0,0,1,89,54.8a9.31,9.31,0,0,1,0,6m-14.17.39a8.33,8.33,0,0,0,1.64,2.71A7.44,7.44,0,0,0,79,65.7a8.28,8.28,0,0,0,6.43,0,7.54,7.54,0,0,0,2.52-1.78,8.33,8.33,0,0,0,1.64-2.71,10.09,10.09,0,0,0,0-6.8,8.18,8.18,0,0,0-1.64-2.7,7.57,7.57,0,0,0-2.52-1.79,8.4,8.4,0,0,0-6.43,0,7.47,7.47,0,0,0-2.52,1.79,8.18,8.18,0,0,0-1.64,2.7,10.09,10.09,0,0,0,0,6.8m-6.44-.39a7.82,7.82,0,0,1-1.44,2.52,6.94,6.94,0,0,1-2.3,1.73,7.64,7.64,0,0,1-6.12,0,6.84,6.84,0,0,1-2.3-1.73,7.47,7.47,0,0,1-1.44-2.52,9.31,9.31,0,0,1,0-6,7.67,7.67,0,0,1,1.44-2.52,6.82,6.82,0,0,1,2.3-1.72,7.64,7.64,0,0,1,6.12,0,6.92,6.92,0,0,1,2.3,1.72,8,8,0,0,1,1.44,2.52,9.31,9.31,0,0,1,0,6m-14.18.39a8.36,8.36,0,0,0,1.65,2.71,7.5,7.5,0,0,0,2.51,1.78,7.92,7.92,0,0,0,3.22.65,7.84,7.84,0,0,0,3.21-.65,7.44,7.44,0,0,0,2.52-1.78,8.33,8.33,0,0,0,1.64-2.71,10.09,10.09,0,0,0,0-6.8,8.18,8.18,0,0,0-1.64-2.7,7.47,7.47,0,0,0-2.52-1.79,7.83,7.83,0,0,0-3.21-.64,7.91,7.91,0,0,0-3.22.64,7.53,7.53,0,0,0-2.51,1.79,8.2,8.2,0,0,0-1.65,2.7,10.09,10.09,0,0,0,0,6.8m-6.75,4.61a.29.29,0,0,0,.32.32.28.28,0,0,0,.32-.32v-16c0-.22-.1-.33-.32-.33a.29.29,0,0,0-.32.33v7.42H36.68V49.81a.29.29,0,0,0-.32-.33c-.22,0-.32.11-.32.33v16a.28.28,0,0,0,.32.32.29.29,0,0,0,.32-.32V57.87H47.43ZM20.7,65.07a6.84,6.84,0,0,1-2.3-1.73A7.47,7.47,0,0,1,17,60.82a9.31,9.31,0,0,1,0-6,7.67,7.67,0,0,1,1.44-2.52,6.82,6.82,0,0,1,2.3-1.72,7,7,0,0,1,3.06-.64,7.61,7.61,0,0,1,2.18.3,6.81,6.81,0,0,1,1.8.86,5.61,5.61,0,0,1,1.35,1.31A5.92,5.92,0,0,1,30,54a.24.24,0,0,0,.26.19.32.32,0,0,0,.27-.12.3.3,0,0,0,0-.31,6.39,6.39,0,0,0-2.42-3.23,7,7,0,0,0-2-.93,8.45,8.45,0,0,0-5.6.3A7.57,7.57,0,0,0,18,51.71a8.18,8.18,0,0,0-1.64,2.7,10.09,10.09,0,0,0,0,6.8A8.33,8.33,0,0,0,18,63.92a7.54,7.54,0,0,0,2.52,1.78,7.92,7.92,0,0,0,3.22.65A8.25,8.25,0,0,0,26.14,66a7.47,7.47,0,0,0,2-.94,6.41,6.41,0,0,0,1.5-1.44,6.11,6.11,0,0,0,.94-1.83.31.31,0,0,0-.31-.44.26.26,0,0,0-.26.2,5.9,5.9,0,0,1-2.22,3A6.43,6.43,0,0,1,26,65.4a7.39,7.39,0,0,1-2.19.31,7,7,0,0,1-3.06-.64m-9.69-5A4,4,0,0,0,10,58.77a5.83,5.83,0,0,0-1.54-.9,17.24,17.24,0,0,0-1.84-.61C6,57.1,5.51,56.94,5,56.75a5,5,0,0,1-1.3-.7,3,3,0,0,1-1.25-2.6,3.48,3.48,0,0,1,.32-1.53,3.23,3.23,0,0,1,.85-1.11,3.64,3.64,0,0,1,1.28-.67,5.53,5.53,0,0,1,1.6-.22,4.33,4.33,0,0,1,2.59.68,3.52,3.52,0,0,1,1.33,1.92.25.25,0,0,0,.1.16.29.29,0,0,0,.19.06.32.32,0,0,0,.27-.12.35.35,0,0,0,0-.3,4.17,4.17,0,0,0-.63-1.38,3.65,3.65,0,0,0-1-.94,4.33,4.33,0,0,0-1.32-.55,7,7,0,0,0-1.55-.17,6.16,6.16,0,0,0-1.77.25,4.44,4.44,0,0,0-1.5.77,3.72,3.72,0,0,0-1,1.3,4.19,4.19,0,0,0-.39,1.87,3.93,3.93,0,0,0,.4,1.88,3.75,3.75,0,0,0,1.06,1.24,6,6,0,0,0,1.48.79c.55.2,1.11.38,1.66.53a16,16,0,0,1,1.65.55,5.44,5.44,0,0,1,1.38.78,3.81,3.81,0,0,1,1,1.16,4,4,0,0,1,0,3.27,3.09,3.09,0,0,1-.91,1.14,3.72,3.72,0,0,1-1.35.67,6,6,0,0,1-1.66.23,5,5,0,0,1-3-.76,3.82,3.82,0,0,1-1.42-2.2A.32.32,0,0,0,2,62.59a.28.28,0,0,0-.21-.07.3.3,0,0,0-.27.13.39.39,0,0,0-.05.28,4.22,4.22,0,0,0,.75,1.67,4,4,0,0,0,1.17,1.05,4.49,4.49,0,0,0,1.46.54,8.14,8.14,0,0,0,1.64.16,6.69,6.69,0,0,0,1.86-.26,4.48,4.48,0,0,0,1.58-.77A3.72,3.72,0,0,0,11,64a4.32,4.32,0,0,0,.4-1.93A4.39,4.39,0,0,0,11,60.11" transform="translate(-1.33 -1.33)"/><path class="cls-2" d="M360.14,50.21l3.42,9.56H356l3.43-9.56Zm-1-.64a.29.29,0,0,0-.29.21l-5.72,15.94a.3.3,0,0,0,0,.29.31.31,0,0,0,.28.13.32.32,0,0,0,.18-.06.31.31,0,0,0,.12-.17l2-5.5h8.06l2,5.52a.28.28,0,0,0,.29.21.31.31,0,0,0,.26-.12.29.29,0,0,0,0-.3l-5.71-15.94a.31.31,0,0,0-.31-.21ZM347.7,65.83a.29.29,0,0,0,.09.22.32.32,0,0,0,.23.09.31.31,0,0,0,.31-.31V49.88a.31.31,0,0,0-.31-.31H346.9a.3.3,0,0,0-.29.17l-5.92,11.49h-.22l-6.14-11.49a.28.28,0,0,0-.27-.17h-1.13a.31.31,0,0,0-.31.31V65.83a.31.31,0,0,0,.31.31.32.32,0,0,0,.23-.09.29.29,0,0,0,.09-.22V50.21h.62L340,61.69a.3.3,0,0,0,.27.18h.6a.32.32,0,0,0,.29-.18l5.91-11.48h.62ZM321.56,50.21,325,59.77h-7.6l3.43-9.56Zm-1-.64a.29.29,0,0,0-.3.21l-5.72,15.94a.3.3,0,0,0,0,.29.32.32,0,0,0,.28.13.28.28,0,0,0,.18-.06.27.27,0,0,0,.12-.17l2-5.5h8.06l2,5.52a.29.29,0,0,0,.29.21.34.34,0,0,0,.27-.12.32.32,0,0,0,0-.3l-5.72-15.94a.3.3,0,0,0-.31-.21Zm-15.33,9.31L310.49,66A.32.32,0,0,0,311,66a.35.35,0,0,0-.05-.34l-5-6.81a5.19,5.19,0,0,0,1.68-.42,4.1,4.1,0,0,0,1.35-.92,4.26,4.26,0,0,0,.9-1.41,5.17,5.17,0,0,0,.33-1.91,4.73,4.73,0,0,0-.37-1.92,3.93,3.93,0,0,0-1-1.44,4.49,4.49,0,0,0-1.58-.91,6.16,6.16,0,0,0-2-.31H301a.29.29,0,0,0-.32.32V65.82a.29.29,0,0,0,.32.32.28.28,0,0,0,.32-.32V58.88Zm-4-8.66h4a5.59,5.59,0,0,1,1.86.29,3.63,3.63,0,0,1,1.35.81,3.31,3.31,0,0,1,.83,1.24,4.32,4.32,0,0,1,.28,1.59,4.4,4.4,0,0,1-.31,1.72,3.55,3.55,0,0,1-.89,1.28A4,4,0,0,1,307,58a5.44,5.44,0,0,1-1.75.28h-4Zm-18.54,0h3.76a10.6,10.6,0,0,1,3.44.51,6.63,6.63,0,0,1,2.49,1.48A6.22,6.22,0,0,1,294,54.59,10.26,10.26,0,0,1,294,61a6.18,6.18,0,0,1-1.51,2.38A6.65,6.65,0,0,1,290,64.91a10.6,10.6,0,0,1-3.44.51h-3.76Zm3.76,15.85a11.63,11.63,0,0,0,3.49-.5A7.44,7.44,0,0,0,292.75,64a6.87,6.87,0,0,0,1.77-2.57,10.92,10.92,0,0,0,0-7.31,6.79,6.79,0,0,0-1.77-2.57A7.29,7.29,0,0,0,290,50.06a11.64,11.64,0,0,0-3.49-.49h-4.08a.28.28,0,0,0-.32.32V65.73c0,.22.1.33.32.33ZM261.2,55.6a4.83,4.83,0,0,1-.46-.59,6.7,6.7,0,0,1-.37-.7,4.74,4.74,0,0,1-.26-.75,3.31,3.31,0,0,1-.09-.77,3,3,0,0,1,.24-1.24,2.46,2.46,0,0,1,.64-.9,2.84,2.84,0,0,1,.94-.55,3.64,3.64,0,0,1,2.26,0,2.84,2.84,0,0,1,.94.55,2.46,2.46,0,0,1,.64.9,3.25,3.25,0,0,1,0,2.45,3.73,3.73,0,0,1-.68,1.06,6.73,6.73,0,0,1-1.1,1c-.43.32-.91.65-1.45,1Zm-2,5.13a4.9,4.9,0,0,1,.8-1.14,6.67,6.67,0,0,1,1.1-.93l1.24-.81,5,5.67a5.89,5.89,0,0,1-1.82,1.59,5,5,0,0,1-2.48.6,5.3,5.3,0,0,1-1.53-.23,3.94,3.94,0,0,1-1.32-.68,3.44,3.44,0,0,1-.92-1.12,3.31,3.31,0,0,1-.35-1.55A3.09,3.09,0,0,1,259.16,60.73Zm7.11-9.5a3.12,3.12,0,0,0-.81-1.1,3.25,3.25,0,0,0-1.15-.64,4.38,4.38,0,0,0-2.68,0,3.25,3.25,0,0,0-1.15.64,3.12,3.12,0,0,0-.81,1.1,3.62,3.62,0,0,0-.31,1.56,3.69,3.69,0,0,0,.11.86,5.22,5.22,0,0,0,.29.87,5.89,5.89,0,0,0,1,1.52l1.17,1.34q-.75.45-1.41.93a6.75,6.75,0,0,0-1.15,1,4.82,4.82,0,0,0-.81,1.24,4.46,4.46,0,0,0-.34,1.55,4.21,4.21,0,0,0,.4,1.83,4,4,0,0,0,1,1.31,4.31,4.31,0,0,0,1.51.81,6.16,6.16,0,0,0,1.84.27,5.73,5.73,0,0,0,2.73-.64,6.29,6.29,0,0,0,2-1.69l1.76,2a.32.32,0,0,0,.25.12A.29.29,0,0,0,270,66a.36.36,0,0,0-.06-.35l-1.87-2.13A8,8,0,0,0,269,61.6a10.09,10.09,0,0,0,.46-2.06q0-.39-.33-.39a.33.33,0,0,0-.19.06.3.3,0,0,0-.11.2,9.86,9.86,0,0,1-.39,1.87,7.83,7.83,0,0,1-.77,1.69l-4.79-5.46a16,16,0,0,0,1.45-1,8.42,8.42,0,0,0,1.19-1.09,5.09,5.09,0,0,0,.8-1.23,3.53,3.53,0,0,0,.29-1.42A3.62,3.62,0,0,0,266.27,51.23ZM244.86,65.82a.29.29,0,0,0,.32.32.28.28,0,0,0,.32-.32v-16c0-.22-.1-.33-.32-.33a.29.29,0,0,0-.32.33v7.42H234.11V49.81a.29.29,0,0,0-.32-.33c-.22,0-.32.11-.32.33v16a.28.28,0,0,0,.32.32.29.29,0,0,0,.32-.32V57.87h10.75Zm-26.74-.75a6.8,6.8,0,0,1-2.29-1.73,7.47,7.47,0,0,1-1.44-2.52,9.31,9.31,0,0,1,0-6,7.67,7.67,0,0,1,1.44-2.52,6.78,6.78,0,0,1,2.29-1.72,7.07,7.07,0,0,1,3.06-.64,7.63,7.63,0,0,1,2.19.3,6.81,6.81,0,0,1,1.8.86,6,6,0,0,1,1.35,1.31,5.64,5.64,0,0,1,.85,1.63.25.25,0,0,0,.27.19.32.32,0,0,0,.27-.12.33.33,0,0,0,0-.31A6.44,6.44,0,0,0,227,52a6.33,6.33,0,0,0-1.49-1.43,6.76,6.76,0,0,0-2-.93,8,8,0,0,0-2.39-.34,7.9,7.9,0,0,0-3.21.64,7.47,7.47,0,0,0-2.52,1.79,8.18,8.18,0,0,0-1.64,2.7,10.09,10.09,0,0,0,0,6.8,8.33,8.33,0,0,0,1.64,2.71A7.44,7.44,0,0,0,218,65.7a7.9,7.9,0,0,0,3.21.65,8.32,8.32,0,0,0,2.39-.33,7.47,7.47,0,0,0,2-.94,6.41,6.41,0,0,0,1.5-1.44,6.11,6.11,0,0,0,.94-1.83.31.31,0,0,0-.31-.44.26.26,0,0,0-.26.2,6.18,6.18,0,0,1-.86,1.65,5.73,5.73,0,0,1-1.37,1.32,6.18,6.18,0,0,1-1.81.86,7.29,7.29,0,0,1-2.19.31A7.07,7.07,0,0,1,218.12,65.07Zm-17.22-7.2h6.95a.29.29,0,0,0,.22-.09.34.34,0,0,0,0-.46.29.29,0,0,0-.22-.09H200.9v-7h7.54a.32.32,0,0,0,.23-.09.32.32,0,0,0,.09-.24.29.29,0,0,0-.09-.22.32.32,0,0,0-.23-.09h-7.86a.29.29,0,0,0-.32.32V65.73a.29.29,0,0,0,.32.33h8a.3.3,0,0,0,.23-.09.34.34,0,0,0,0-.46.3.3,0,0,0-.23-.09H200.9Zm-14.28,0h6.95a.29.29,0,0,0,.22-.09.34.34,0,0,0,0-.46.29.29,0,0,0-.22-.09h-6.95v-7h7.54a.32.32,0,0,0,.23-.09.32.32,0,0,0,.09-.24.29.29,0,0,0-.09-.22.32.32,0,0,0-.23-.09H186.3a.28.28,0,0,0-.32.32V65.73c0,.22.1.33.32.33h8a.32.32,0,1,0,0-.64h-7.68ZM176,59.08a6.2,6.2,0,0,0,2.07-.33,4.51,4.51,0,0,0,1.61-.93,4.3,4.3,0,0,0,1-1.49,5.62,5.62,0,0,0,0-4,4.3,4.3,0,0,0-1-1.49,4.68,4.68,0,0,0-1.61-.94,6.47,6.47,0,0,0-2.07-.32h-4.11a.29.29,0,0,0-.32.32V65.82a.29.29,0,0,0,.32.32.29.29,0,0,0,.33-.32V59.08Zm-3.78-.64V50.21H176a5.59,5.59,0,0,1,1.78.26,3.84,3.84,0,0,1,1.4.78,3.47,3.47,0,0,1,.91,1.29,5,5,0,0,1,0,3.57,3.47,3.47,0,0,1-.91,1.29,3.84,3.84,0,0,1-1.4.78,5.89,5.89,0,0,1-1.78.26Zm-6.5,1.67a3.87,3.87,0,0,0-1.06-1.34,5.83,5.83,0,0,0-1.54-.9,16.53,16.53,0,0,0-1.84-.61c-.54-.16-1.06-.32-1.55-.51a4.94,4.94,0,0,1-1.31-.7,3.18,3.18,0,0,1-.91-1,3.29,3.29,0,0,1-.34-1.55,3.48,3.48,0,0,1,.32-1.53,3.23,3.23,0,0,1,.85-1.11,3.72,3.72,0,0,1,1.28-.67,5.53,5.53,0,0,1,1.6-.22,4.36,4.36,0,0,1,2.6.68,3.56,3.56,0,0,1,1.32,1.92.25.25,0,0,0,.1.16.31.31,0,0,0,.19.06.31.31,0,0,0,.31-.42,4.17,4.17,0,0,0-.63-1.38,3.61,3.61,0,0,0-1-.94,4.5,4.5,0,0,0-1.33-.55,7,7,0,0,0-1.55-.17,6.16,6.16,0,0,0-1.77.25,4.44,4.44,0,0,0-1.5.77,3.72,3.72,0,0,0-1,1.3,4.19,4.19,0,0,0-.39,1.87,3.93,3.93,0,0,0,.4,1.88A3.87,3.87,0,0,0,158,56.59a6,6,0,0,0,1.48.79c.56.2,1.11.38,1.66.53a16,16,0,0,1,1.65.55,5.44,5.44,0,0,1,1.38.78,3.67,3.67,0,0,1,1,1.16,3.54,3.54,0,0,1,.36,1.66,3.64,3.64,0,0,1-.33,1.61,3.22,3.22,0,0,1-.92,1.14,3.72,3.72,0,0,1-1.35.67,6,6,0,0,1-1.66.23,4.94,4.94,0,0,1-3-.76,3.78,3.78,0,0,1-1.43-2.2.26.26,0,0,0-.09-.16.27.27,0,0,0-.2-.07.31.31,0,0,0-.28.13.39.39,0,0,0-.05.28,4.22,4.22,0,0,0,.75,1.67,4.14,4.14,0,0,0,1.17,1.05,4.54,4.54,0,0,0,1.47.54,8,8,0,0,0,1.63.16,6.81,6.81,0,0,0,1.87-.26,4.52,4.52,0,0,0,1.57-.77A3.72,3.72,0,0,0,165.7,64a4.32,4.32,0,0,0,.4-1.93A4.39,4.39,0,0,0,165.71,60.11Zm-28.84-2.18h7a.31.31,0,0,0,.22-.09.34.34,0,0,0,0-.46.31.31,0,0,0-.22-.09h-7V50.21h7.54a.32.32,0,0,0,.23-.09.32.32,0,0,0,.09-.24.29.29,0,0,0-.09-.22.32.32,0,0,0-.23-.09h-7.86a.29.29,0,0,0-.32.32V65.82a.29.29,0,0,0,.32.32.28.28,0,0,0,.32-.32Zm-7.33,2.89a7.47,7.47,0,0,1-1.44,2.52,6.8,6.8,0,0,1-2.29,1.73,7.64,7.64,0,0,1-6.12,0,6.84,6.84,0,0,1-2.3-1.73A7.47,7.47,0,0,1,116,60.82a9.31,9.31,0,0,1,0-6,7.67,7.67,0,0,1,1.44-2.52,6.82,6.82,0,0,1,2.3-1.72,7.64,7.64,0,0,1,6.12,0,6.78,6.78,0,0,1,2.29,1.72,7.67,7.67,0,0,1,1.44,2.52,9.31,9.31,0,0,1,0,6Zm-14.17.39A8.33,8.33,0,0,0,117,63.92a7.64,7.64,0,0,0,2.52,1.78,8.28,8.28,0,0,0,6.43,0,7.44,7.44,0,0,0,2.52-1.78,8.33,8.33,0,0,0,1.64-2.71,10.09,10.09,0,0,0,0-6.8,8.18,8.18,0,0,0-1.64-2.7A7.47,7.47,0,0,0,126,49.92a8.4,8.4,0,0,0-6.43,0A7.67,7.67,0,0,0,117,51.71a8.18,8.18,0,0,0-1.64,2.7,10.09,10.09,0,0,0,0,6.8ZM96.3,49.81a.32.32,0,1,0-.64,0V65.73a.29.29,0,0,0,.32.33h7.17a.32.32,0,1,0,0-.64H96.3ZM89,60.82a7.47,7.47,0,0,1-1.44,2.52,6.74,6.74,0,0,1-2.3,1.73,7.64,7.64,0,0,1-6.12,0,6.8,6.8,0,0,1-2.29-1.73,7.47,7.47,0,0,1-1.44-2.52,9.31,9.31,0,0,1,0-6,7.67,7.67,0,0,1,1.44-2.52,6.78,6.78,0,0,1,2.29-1.72,7.64,7.64,0,0,1,6.12,0,6.72,6.72,0,0,1,2.3,1.72A7.67,7.67,0,0,1,89,54.8a9.31,9.31,0,0,1,0,6Zm-14.17.39a8.33,8.33,0,0,0,1.64,2.71A7.44,7.44,0,0,0,79,65.7a8.28,8.28,0,0,0,6.43,0,7.54,7.54,0,0,0,2.52-1.78,8.33,8.33,0,0,0,1.64-2.71,10.09,10.09,0,0,0,0-6.8,8.18,8.18,0,0,0-1.64-2.7,7.57,7.57,0,0,0-2.52-1.79,8.4,8.4,0,0,0-6.43,0,7.47,7.47,0,0,0-2.52,1.79,8.18,8.18,0,0,0-1.64,2.7,10.09,10.09,0,0,0,0,6.8Zm-6.44-.39a7.82,7.82,0,0,1-1.44,2.52,6.94,6.94,0,0,1-2.3,1.73,7.64,7.64,0,0,1-6.12,0,6.84,6.84,0,0,1-2.3-1.73,7.47,7.47,0,0,1-1.44-2.52,9.31,9.31,0,0,1,0-6,7.67,7.67,0,0,1,1.44-2.52,6.82,6.82,0,0,1,2.3-1.72,7.64,7.64,0,0,1,6.12,0,6.92,6.92,0,0,1,2.3,1.72,8,8,0,0,1,1.44,2.52,9.31,9.31,0,0,1,0,6Zm-14.18.39a8.36,8.36,0,0,0,1.65,2.71,7.5,7.5,0,0,0,2.51,1.78,7.92,7.92,0,0,0,3.22.65,7.84,7.84,0,0,0,3.21-.65,7.44,7.44,0,0,0,2.52-1.78,8.33,8.33,0,0,0,1.64-2.71,10.09,10.09,0,0,0,0-6.8,8.18,8.18,0,0,0-1.64-2.7,7.47,7.47,0,0,0-2.52-1.79,7.83,7.83,0,0,0-3.21-.64,7.91,7.91,0,0,0-3.22.64,7.53,7.53,0,0,0-2.51,1.79,8.2,8.2,0,0,0-1.65,2.7,10.09,10.09,0,0,0,0,6.8Zm-6.75,4.61a.29.29,0,0,0,.32.32.28.28,0,0,0,.32-.32v-16c0-.22-.1-.33-.32-.33a.29.29,0,0,0-.32.33v7.42H36.68V49.81a.29.29,0,0,0-.32-.33c-.22,0-.32.11-.32.33v16a.28.28,0,0,0,.32.32.29.29,0,0,0,.32-.32V57.87H47.43ZM20.7,65.07a6.84,6.84,0,0,1-2.3-1.73A7.47,7.47,0,0,1,17,60.82a9.31,9.31,0,0,1,0-6,7.67,7.67,0,0,1,1.44-2.52,6.82,6.82,0,0,1,2.3-1.72,7,7,0,0,1,3.06-.64,7.61,7.61,0,0,1,2.18.3,6.81,6.81,0,0,1,1.8.86,5.61,5.61,0,0,1,1.35,1.31A5.92,5.92,0,0,1,30,54a.24.24,0,0,0,.26.19.32.32,0,0,0,.27-.12.3.3,0,0,0,0-.31,6.39,6.39,0,0,0-2.42-3.23,7,7,0,0,0-2-.93,8.45,8.45,0,0,0-5.6.3A7.57,7.57,0,0,0,18,51.71a8.18,8.18,0,0,0-1.64,2.7,10.09,10.09,0,0,0,0,6.8A8.33,8.33,0,0,0,18,63.92a7.54,7.54,0,0,0,2.52,1.78,7.92,7.92,0,0,0,3.22.65A8.25,8.25,0,0,0,26.14,66a7.47,7.47,0,0,0,2-.94,6.41,6.41,0,0,0,1.5-1.44,6.11,6.11,0,0,0,.94-1.83.31.31,0,0,0-.31-.44.26.26,0,0,0-.26.2,5.9,5.9,0,0,1-2.22,3A6.43,6.43,0,0,1,26,65.4a7.39,7.39,0,0,1-2.19.31A7,7,0,0,1,20.7,65.07Zm-9.69-5A4,4,0,0,0,10,58.77a5.83,5.83,0,0,0-1.54-.9,17.24,17.24,0,0,0-1.84-.61C6,57.1,5.51,56.94,5,56.75a5,5,0,0,1-1.3-.7,3,3,0,0,1-1.25-2.6,3.48,3.48,0,0,1,.32-1.53,3.23,3.23,0,0,1,.85-1.11,3.64,3.64,0,0,1,1.28-.67,5.53,5.53,0,0,1,1.6-.22,4.33,4.33,0,0,1,2.59.68,3.52,3.52,0,0,1,1.33,1.92.25.25,0,0,0,.1.16.29.29,0,0,0,.19.06.32.32,0,0,0,.27-.12.35.35,0,0,0,0-.3,4.17,4.17,0,0,0-.63-1.38,3.65,3.65,0,0,0-1-.94,4.33,4.33,0,0,0-1.32-.55,7,7,0,0,0-1.55-.17,6.16,6.16,0,0,0-1.77.25,4.44,4.44,0,0,0-1.5.77,3.72,3.72,0,0,0-1,1.3,4.19,4.19,0,0,0-.39,1.87,3.93,3.93,0,0,0,.4,1.88,3.75,3.75,0,0,0,1.06,1.24,6,6,0,0,0,1.48.79c.55.2,1.11.38,1.66.53a16,16,0,0,1,1.65.55,5.44,5.44,0,0,1,1.38.78,3.81,3.81,0,0,1,1,1.16,4,4,0,0,1,0,3.27,3.09,3.09,0,0,1-.91,1.14,3.72,3.72,0,0,1-1.35.67,6,6,0,0,1-1.66.23,5,5,0,0,1-3-.76,3.82,3.82,0,0,1-1.42-2.2A.32.32,0,0,0,2,62.59a.28.28,0,0,0-.21-.07.3.3,0,0,0-.27.13.39.39,0,0,0-.05.28,4.22,4.22,0,0,0,.75,1.67,4,4,0,0,0,1.17,1.05,4.49,4.49,0,0,0,1.46.54,8.14,8.14,0,0,0,1.64.16,6.69,6.69,0,0,0,1.86-.26,4.48,4.48,0,0,0,1.58-.77A3.72,3.72,0,0,0,11,64a4.32,4.32,0,0,0,.4-1.93A4.39,4.39,0,0,0,11,60.11Z" transform="translate(-1.33 -1.33)"/><rect class="cls-1" x="0.96" y="78.09" width="364.65" height="1.39"/><path class="cls-1" d="M353.13,31h11.56a.24.24,0,0,1,.28.28c0,.19-.09.29-.28.29H352.84c-.19,0-.28-.1-.28-.29V5.56a.24.24,0,0,1,.28-.28c.19,0,.29.09.29.28Zm14.65,3.66v-6.8H356.53V2.18h-7.38v32.5ZM329.14,8.56h0l3.92,13h-7.92Zm7.93,26.12h8L334,2.18H324.6l-11.16,32.5h7.71l2.28-7.44h11.38ZM331.4,5.85H327L321.08,24.1h16.25Zm-4.85-.38a.26.26,0,0,1,.26-.19h4.78a.28.28,0,0,1,.29.19l8.47,26.1a.38.38,0,0,1,0,.28.26.26,0,0,1-.24.12.26.26,0,0,1-.26-.21l-2.31-7.09H320.89l-2.31,7.09a.26.26,0,0,1-.26.21.24.24,0,0,1-.25-.13.36.36,0,0,1,0-.27Zm-22.47,9.89a6.45,6.45,0,0,1-3.53,3.81,9.12,9.12,0,0,1-3,.74l8.21,11.66a.25.25,0,0,1,.05.29.26.26,0,0,1-.26.16.29.29,0,0,1-.24-.12L296.91,20H289V31.3c0,.19-.09.29-.28.29a.26.26,0,0,1-.29-.29V5.56c0-.19.1-.28.29-.28h7.87a10.06,10.06,0,0,1,3.37.53,7.2,7.2,0,0,1,2.51,1.5A6.38,6.38,0,0,1,304,9.62a7.8,7.8,0,0,1,.53,2.94,8.14,8.14,0,0,1-.46,2.8m-11.72,7.47h2.83l8.05,11.85H312l-9.44-13A9.06,9.06,0,0,0,305,20.06a9.21,9.21,0,0,0,1.7-2.15,10.07,10.07,0,0,0,1-2.58,12.1,12.1,0,0,0,.35-2.92,11.21,11.21,0,0,0-.7-3.93,9,9,0,0,0-2.12-3.26A10.33,10.33,0,0,0,301.67,3a13.88,13.88,0,0,0-4.95-.82H285v32.5h7.32Zm0-6.25V8.63h3.95a4.43,4.43,0,0,1,3.14,1.07,3.83,3.83,0,0,1,1.14,2.93,3.77,3.77,0,0,1-1.13,2.88,4.4,4.4,0,0,1-3.15,1.07Zm11.09-6.82A5.82,5.82,0,0,0,302,7.64a6.73,6.73,0,0,0-2.33-1.33,9.46,9.46,0,0,0-3.06-.46H289V19.39h7.59a9.38,9.38,0,0,0,3.1-.48A6.55,6.55,0,0,0,302,17.55a5.82,5.82,0,0,0,1.46-2.15,7.6,7.6,0,0,0,.51-2.84,7.17,7.17,0,0,0-.52-2.8M267.5,5.85h-8.75a.26.26,0,0,1-.29-.29c0-.19.1-.28.29-.28h18.08a.24.24,0,0,1,.28.28c0,.19-.09.29-.28.29h-8.76V31.3c0,.19-.09.29-.28.29a.26.26,0,0,1-.29-.29ZM279.92,9V2.18H255.65V9h8.45V34.68h7.37V9ZM250.54,34.68V2.18h-7.33V22.55h0L229.13,2.18h-7v32.5h7.33V14.32h0l14.06,20.36ZM246.59,31V5.56a.24.24,0,0,1,.28-.28c.19,0,.29.09.29.28V31.3a.26.26,0,0,1-.29.29h-1.71a.26.26,0,0,1-.24-.12L227.37,5.85h-1.29V31.3a.25.25,0,0,1-.29.29c-.19,0-.28-.1-.28-.29V5.56a.24.24,0,0,1,.28-.28h1.72a.26.26,0,0,1,.24.12L245.3,31ZM200.4,18.31V31h12.94c.19,0,.29.09.29.28a.26.26,0,0,1-.29.29H200.11c-.19,0-.28-.1-.28-.29V5.56a.24.24,0,0,1,.28-.28h13c.19,0,.29.09.29.28a.26.26,0,0,1-.29.29H200.4V17.74h11.73c.19,0,.28.1.28.29a.24.24,0,0,1-.28.28Zm16,16.37V28H203.8V21.22h11.42V14.84H203.8V8.89h12.39V2.18H196.42v32.5Zm-45-32.78a16.42,16.42,0,0,0-4,1.65A15.84,15.84,0,0,0,164,6.16a16.12,16.12,0,0,0-2.57,3.42,17.11,17.11,0,0,0-1.64,4.14,19,19,0,0,0-.57,4.71,19,19,0,0,0,.57,4.73,17,17,0,0,0,1.64,4.12A16.44,16.44,0,0,0,164,30.71a15.79,15.79,0,0,0,3.37,2.6,16.06,16.06,0,0,0,4,1.66,17.94,17.94,0,0,0,4.57.57,17.71,17.71,0,0,0,5.45-.82,15.17,15.17,0,0,0,4.6-2.36,14,14,0,0,0,3.43-3.72,14.39,14.39,0,0,0,1.94-4.95l-7.33-1.31a11.14,11.14,0,0,1-.93,2.22,6.92,6.92,0,0,1-1.56,1.95,7.68,7.68,0,0,1-2.34,1.39,9.17,9.17,0,0,1-3.26.53,8.88,8.88,0,0,1-3.65-.73,8.36,8.36,0,0,1-2.83-2.07,9.4,9.4,0,0,1-1.83-3.18,12,12,0,0,1-.66-4.06,12,12,0,0,1,.66-4,9.55,9.55,0,0,1,1.83-3.19,8,8,0,0,1,2.83-2.09A8.73,8.73,0,0,1,176,8.35a8.93,8.93,0,0,1,3.19.52,7.52,7.52,0,0,1,4,3.32,10.31,10.31,0,0,1,.95,2.2l7.33-1.31a14.39,14.39,0,0,0-1.94-4.95,13.77,13.77,0,0,0-3.43-3.7,15.53,15.53,0,0,0-4.6-2.31A18.32,18.32,0,0,0,176,1.33a17.94,17.94,0,0,0-4.57.57M179.53,5a12.93,12.93,0,0,1,3.06,1.21,10.84,10.84,0,0,1,2.47,1.92,10.28,10.28,0,0,1,1.8,2.56c.06.12.06.22,0,.29a.33.33,0,0,1-.24.11.26.26,0,0,1-.24-.14,10.12,10.12,0,0,0-1.69-2.42,10,10,0,0,0-2.34-1.83,11.62,11.62,0,0,0-2.92-1.15,13.71,13.71,0,0,0-3.4-.41,12.55,12.55,0,0,0-5.26,1.07,12,12,0,0,0-4,2.9,12.81,12.81,0,0,0-2.5,4.23,14.93,14.93,0,0,0-.86,5.1,14.94,14.94,0,0,0,.86,5.11,12.81,12.81,0,0,0,2.5,4.23,12,12,0,0,0,4,2.89A12.39,12.39,0,0,0,176,31.73a14,14,0,0,0,3.42-.41,11.67,11.67,0,0,0,2.92-1.18,9.84,9.84,0,0,0,2.33-1.86,10.29,10.29,0,0,0,1.68-2.42.26.26,0,0,1,.26-.17.24.24,0,0,1,.25.14.3.3,0,0,1,0,.26,10.53,10.53,0,0,1-1.78,2.57,10.37,10.37,0,0,1-2.46,1.95,12.13,12.13,0,0,1-3.07,1.25,13.73,13.73,0,0,1-3.56.44,13.3,13.3,0,0,1-5.33-1,12.3,12.3,0,0,1-4.16-2.91,13,13,0,0,1-2.7-4.4,15.47,15.47,0,0,1-1-5.52,15.46,15.46,0,0,1,1-5.49,13,13,0,0,1,2.7-4.4,12.46,12.46,0,0,1,4.16-2.92A13.31,13.31,0,0,1,176,4.56a14.32,14.32,0,0,1,3.52.43M132,31h11.57a.24.24,0,0,1,.28.28c0,.19-.09.29-.28.29H131.69a.26.26,0,0,1-.29-.29V5.56c0-.19.1-.28.29-.28a.24.24,0,0,1,.28.28Zm14.66,3.66v-6.8H135.38V2.18H128v32.5ZM108,8.56h0l3.92,13H104Zm7.92,26.12h8L112.8,2.18h-9.35L92.29,34.68H100l2.28-7.44h11.37ZM110.25,5.85h-4.38L99.93,24.1h16.25Zm-4.85-.38a.26.26,0,0,1,.26-.19h4.78a.28.28,0,0,1,.29.19l8.47,26.1a.33.33,0,0,1,0,.28.24.24,0,0,1-.23.12.27.27,0,0,1-.27-.21l-2.3-7.09H99.74l-2.31,7.09a.27.27,0,0,1-.26.21.24.24,0,0,1-.25-.13.36.36,0,0,1,0-.27ZM88.67,5a.29.29,0,0,1,.5,0,.34.34,0,0,1,0,.33L79.87,20.86V31.3a.25.25,0,0,1-.29.29c-.19,0-.28-.1-.28-.29V20.81L70.19,5.32a.32.32,0,0,1,0-.33.27.27,0,0,1,.26-.14.26.26,0,0,1,.24.14l9,15.2ZM72.88,2.18H64.45l11.45,19V34.68h7.37V21.1L94.72,2.18H86.6l-6.9,12h0ZM52.53,30.66a11.93,11.93,0,0,0,4-2.89A12.79,12.79,0,0,0,59,23.54a15.41,15.41,0,0,0,0-10.21A12.79,12.79,0,0,0,56.5,9.1a12,12,0,0,0-4-2.9A13.44,13.44,0,0,0,42,6.2a11.82,11.82,0,0,0-4,2.9,12.64,12.64,0,0,0-2.5,4.23,15.41,15.41,0,0,0,0,10.21,12.64,12.64,0,0,0,2.5,4.23,11.79,11.79,0,0,0,4,2.89,13.44,13.44,0,0,0,10.51,0M42,31.26a12.34,12.34,0,0,1-4.17-2.91,13.34,13.34,0,0,1-2.7-4.4,15.46,15.46,0,0,1-1-5.52,15.45,15.45,0,0,1,1-5.49,13.34,13.34,0,0,1,2.7-4.4A12.51,12.51,0,0,1,42,5.62a13.93,13.93,0,0,1,10.66,0,12.57,12.57,0,0,1,4.16,2.92,13,13,0,0,1,2.7,4.4,15.45,15.45,0,0,1,1,5.49,15.46,15.46,0,0,1-1,5.52,13,13,0,0,1-2.7,4.4,12.4,12.4,0,0,1-4.16,2.91,14.18,14.18,0,0,1-10.66,0m21.5-17.54a16.72,16.72,0,0,0-1.64-4.14,16.09,16.09,0,0,0-5.93-6,16.33,16.33,0,0,0-4-1.65,18.57,18.57,0,0,0-9.13,0,16.11,16.11,0,0,0-4,1.65,15.59,15.59,0,0,0-3.37,2.61,15.79,15.79,0,0,0-2.57,3.42,17.11,17.11,0,0,0-1.64,4.14,19,19,0,0,0-.57,4.71,19,19,0,0,0,.57,4.73,17,17,0,0,0,1.64,4.12,16.1,16.1,0,0,0,2.57,3.43,15.55,15.55,0,0,0,3.37,2.6,15.76,15.76,0,0,0,4,1.66,18.57,18.57,0,0,0,9.13,0,16,16,0,0,0,4-1.66,15.73,15.73,0,0,0,3.36-2.6,16.1,16.1,0,0,0,2.57-3.43,16.41,16.41,0,0,0,1.64-4.14,19.41,19.41,0,0,0,0-9.42M39,14.38a9.9,9.9,0,0,1,1.83-3.19A8.12,8.12,0,0,1,43.62,9.1a9.28,9.28,0,0,1,7.31,0,8.12,8.12,0,0,1,2.83,2.09,9.9,9.9,0,0,1,1.83,3.19,12,12,0,0,1,.66,4,12,12,0,0,1-.66,4.06,9.9,9.9,0,0,1-1.83,3.19,8.38,8.38,0,0,1-2.83,2.09,9.28,9.28,0,0,1-7.31,0,8.38,8.38,0,0,1-2.83-2.09A9.9,9.9,0,0,1,39,22.49a12,12,0,0,1-.65-4.06,12,12,0,0,1,.65-4m-18,1a6.45,6.45,0,0,1-3.53,3.81,9.06,9.06,0,0,1-3,.74l8.21,11.66a.25.25,0,0,1,.05.29.26.26,0,0,1-.26.16.29.29,0,0,1-.24-.12L13.78,20H5.86V31.3a.26.26,0,0,1-.29.29.26.26,0,0,1-.29-.29V5.56c0-.19.1-.28.29-.28h7.87a10.06,10.06,0,0,1,3.37.53,7.2,7.2,0,0,1,2.51,1.5,6.38,6.38,0,0,1,1.56,2.31,7.8,7.8,0,0,1,.53,2.94,8.14,8.14,0,0,1-.46,2.8M9.23,22.83h2.83l8,11.85h8.78l-9.45-13a9.06,9.06,0,0,0,2.38-1.61,9.21,9.21,0,0,0,1.7-2.15,10.07,10.07,0,0,0,1-2.58,12.1,12.1,0,0,0,.35-2.92,11.21,11.21,0,0,0-.7-3.93,9,9,0,0,0-2.12-3.26A10.23,10.23,0,0,0,18.54,3a13.88,13.88,0,0,0-4.95-.82H1.91v32.5H9.23Zm0-6.25V8.63h3.95A4.41,4.41,0,0,1,16.32,9.7a3.84,3.84,0,0,1,1.15,2.93,3.81,3.81,0,0,1-1.13,2.88,4.44,4.44,0,0,1-3.16,1.07ZM20.32,9.76a5.82,5.82,0,0,0-1.49-2.12A6.73,6.73,0,0,0,16.5,6.31a9.46,9.46,0,0,0-3.06-.46H5.86V19.39h7.58a9.38,9.38,0,0,0,3.1-.48,6.55,6.55,0,0,0,2.33-1.36,5.82,5.82,0,0,0,1.46-2.15,7.6,7.6,0,0,0,.51-2.84,7.17,7.17,0,0,0-.52-2.8" transform="translate(-1.33 -1.33)"/></svg>